<svg id="Capa_1" data-name="Capa 1" xmlns="http://www.w3.org/2000/svg" viewBox="0 0 452.34 388.66"><defs><style>.cls-1{fill:#3dd0f2;}.cls-2{fill:#f48c6c;}.cls-3{font-size:72px;font-family:Roboto-Bold, Roboto;font-weight:700;}.cls-4{letter-spacing:-0.09em;}.cls-5{letter-spacing:-0.01em;}.cls-6{letter-spacing:-0.01em;}.cls-7{letter-spacing:-0.03em;}</style></defs><title>sympact</title><path d="M452.34,265a7.5,7.5,0,0,1-7.5,7.5H7.5A7.5,7.5,0,0,1,0,265,226.17,226.17,0,0,1,386.09,105.09,224.7,224.7,0,0,1,452.34,265Zm-22.09-7.5h7c-4-113-97.1-203.67-211-203.67s-207.08,90.69-211,203.67h7c4-109.15,94-196.73,204.08-196.73S426.29,148.37,430.25,257.52Zm-100.07,0h85.07a188.82,188.82,0,0,0-4.49-34.2l-23.33,6.26a7.75,7.75,0,0,1-2,.26,7.5,7.5,0,0,1-1.94-14.75l23.34-6.26A189.66,189.66,0,0,0,393.64,177l-20.9,12.07a7.5,7.5,0,0,1-7.5-13L386.12,164a190.66,190.66,0,0,0-21-27.32l-17,17a7.5,7.5,0,1,1-10.61-10.61l17-17a190.49,190.49,0,0,0-27.32-21L315.12,126a7.5,7.5,0,0,1-13-7.51l12.08-20.9a189.28,189.28,0,0,0-31.85-13.23l-6.26,23.34a7.51,7.51,0,0,1-7.24,5.56,7.75,7.75,0,0,1-2-.26,7.5,7.5,0,0,1-5.3-9.19l6.26-23.34A188.81,188.81,0,0,0,233.67,76v24.17a7.5,7.5,0,0,1-15,0V76a188.81,188.81,0,0,0-34.2,4.47l6.26,23.34a7.5,7.5,0,0,1-5.3,9.19,7.75,7.75,0,0,1-1.95.26,7.51,7.51,0,0,1-7.24-5.56L170,84.31a187.64,187.64,0,0,0-31.85,13.23l12.08,20.9a7.5,7.5,0,1,1-13,7.51l-12.06-20.88a189.86,189.86,0,0,0-27.33,21l17,17a7.5,7.5,0,1,1-10.6,10.61l-17-17a191.11,191.11,0,0,0-21,27.32l20.88,12.06a7.5,7.5,0,0,1-7.49,13L58.69,177a188.35,188.35,0,0,0-13.23,31.84l23.34,6.26a7.5,7.5,0,0,1-1.94,14.75,7.75,7.75,0,0,1-1.95-.26l-23.33-6.26a188.83,188.83,0,0,0-4.5,34.2h85.07A104.23,104.23,0,0,1,294.38,186.2l19.69-19.69a7.5,7.5,0,0,1,10.61,10.61L305,196.81A103.84,103.84,0,0,1,330.18,257.52Zm-85.9,0h70.86a89,89,0,0,0-20.79-50.08Zm-21.22,0,60.69-60.68A89.23,89.23,0,0,0,137.2,257.52Z" transform="translate(0 -38.85)"/><path class="cls-1" d="M437.2,257.52h-7c-4-109.15-94-196.73-204.08-196.73S26,148.37,22.09,257.52h-7c4-113,97.11-203.67,211-203.67S433.24,144.54,437.2,257.52Z" transform="translate(0 -38.85)"/><path class="cls-2" d="M415.25,257.52H330.18A103.84,103.84,0,0,0,305,196.81l19.69-19.69a7.5,7.5,0,0,0-10.61-10.61L294.38,186.2a104.23,104.23,0,0,0-172.23,71.32H37.08a188.83,188.83,0,0,1,4.5-34.2l23.33,6.26a7.75,7.75,0,0,0,1.95.26,7.5,7.5,0,0,0,1.94-14.75l-23.34-6.26A188.35,188.35,0,0,1,58.69,177L79.6,189.06a7.5,7.5,0,0,0,7.49-13L66.21,164a191.11,191.11,0,0,1,21-27.32l17,17a7.5,7.5,0,0,0,10.6-10.61l-17-17a189.86,189.86,0,0,1,27.33-21L137.22,126a7.5,7.5,0,0,0,13-7.51l-12.08-20.9A187.64,187.64,0,0,1,170,84.31l6.26,23.34a7.51,7.51,0,0,0,7.24,5.56,7.75,7.75,0,0,0,1.95-.26,7.5,7.5,0,0,0,5.3-9.19l-6.26-23.34A188.81,188.81,0,0,1,218.67,76v24.17a7.5,7.5,0,0,0,15,0V76a188.81,188.81,0,0,1,34.2,4.47l-6.26,23.34a7.5,7.5,0,0,0,5.3,9.19,7.75,7.75,0,0,0,2,.26,7.51,7.51,0,0,0,7.24-5.56l6.26-23.34a189.28,189.28,0,0,1,31.85,13.23l-12.08,20.9a7.5,7.5,0,1,0,13,7.51l12.06-20.88a190.49,190.49,0,0,1,27.32,21l-17,17a7.5,7.5,0,1,0,10.61,10.61l17-17a190.66,190.66,0,0,1,21,27.32l-20.88,12.05a7.5,7.5,0,0,0,7.5,13L393.64,177a189.66,189.66,0,0,1,13.24,31.85l-23.34,6.26a7.5,7.5,0,0,0,1.94,14.75,7.75,7.75,0,0,0,2-.26l23.33-6.26A188.82,188.82,0,0,1,415.25,257.52Z" transform="translate(0 -38.85)"/><path d="M406.3,283.85a7.5,7.5,0,1,1,0,15H46a7.5,7.5,0,0,1,0-15Z" transform="translate(0 -38.85)"/><path d="M346.17,308.85a7.5,7.5,0,0,1,0,15h-240a7.5,7.5,0,1,1,0-15Z" transform="translate(0 -38.85)"/><text class="cls-3" transform="translate(61.69 369.15)">SYM<tspan class="cls-4" x="151.84" y="0">P</tspan><tspan class="cls-5" x="192.02" y="0">A</tspan><tspan class="cls-6" x="239.73" y="0">C</tspan><tspan class="cls-7" x="285.82" y="0">T</tspan></text></svg>